<svg xmlns="http://www.w3.org/2000/svg" xmlns:xlink="http://www.w3.org/1999/xlink" width="617" zoomAndPan="magnify" viewBox="0 0 462.75 121.500001" height="162" preserveAspectRatio="xMidYMid meet" version="1.0"><defs><g/><clipPath id="a4a4c48960"><rect x="0" width="170" y="0" height="85"/></clipPath><clipPath id="8a49416250"><rect x="0" width="103" y="0" height="85"/></clipPath><clipPath id="df2577913b"><path d="M 204.113281 17 L 320.636719 17 L 320.636719 84.277344 L 204.113281 84.277344 Z M 204.113281 17 " clip-rule="nonzero"/></clipPath><clipPath id="c875a82045"><path d="M 253 2.117188 L 271 2.117188 L 271 20 L 253 20 Z M 253 2.117188 " clip-rule="nonzero"/></clipPath></defs><g transform="matrix(1, 0, 0, 1, 43, 18)"><g clip-path="url(#a4a4c48960)"><g fill="#f9fafb" fill-opacity="1"><g transform="translate(1.285223, 66.56031)"><g><path d="M 33.921875 -46.9375 L 46.609375 -46.9375 L 46.609375 0 L 34.84375 0 L 16.65625 -25.25 L 16.65625 0 L 3.96875 0 L 3.96875 -46.9375 L 15.734375 -46.9375 L 33.921875 -21.75 Z M 33.921875 -46.9375 "/></g></g></g><g fill="#f9fafb" fill-opacity="1"><g transform="translate(52.190637, 66.56031)"><g><path d="M 26.171875 0.65625 C 21.109375 0.707031 16.75 -0.191406 13.09375 -2.046875 C 9.4375 -3.898438 6.632812 -6.566406 4.6875 -10.046875 C 2.75 -13.523438 1.78125 -17.710938 1.78125 -22.609375 C 1.78125 -27.628906 2.835938 -32.015625 4.953125 -35.765625 C 7.066406 -39.515625 10.019531 -42.421875 13.8125 -44.484375 C 17.601562 -46.554688 22.035156 -47.59375 27.109375 -47.59375 C 31.734375 -47.59375 35.773438 -46.625 39.234375 -44.6875 C 42.691406 -42.75 45.378906 -40.050781 47.296875 -36.59375 C 49.210938 -33.132812 50.171875 -29.066406 50.171875 -24.390625 C 50.171875 -19.453125 49.164062 -15.109375 47.15625 -11.359375 C 45.15625 -7.617188 42.347656 -4.691406 38.734375 -2.578125 C 35.117188 -0.460938 30.929688 0.613281 26.171875 0.65625 Z M 25.84375 -10.90625 C 29.238281 -10.90625 31.925781 -12.101562 33.90625 -14.5 C 35.894531 -16.90625 36.890625 -20.113281 36.890625 -24.125 C 36.890625 -27.738281 35.953125 -30.625 34.078125 -32.78125 C 32.203125 -34.945312 29.703125 -36.03125 26.578125 -36.03125 C 24.285156 -36.03125 22.28125 -35.46875 20.5625 -34.34375 C 18.84375 -33.21875 17.507812 -31.675781 16.5625 -29.71875 C 15.613281 -27.757812 15.140625 -25.5 15.140625 -22.9375 C 15.140625 -19.144531 16.085938 -16.191406 17.984375 -14.078125 C 19.878906 -11.960938 22.5 -10.90625 25.84375 -10.90625 Z M 25.84375 -10.90625 "/></g></g></g><g fill="#f9fafb" fill-opacity="1"><g transform="translate(104.484375, 66.56031)"><g><path d="M 4.09375 0 L 5.484375 -46.9375 L 16.265625 -46.9375 L 32 -16.328125 L 47.46875 -46.9375 L 58.25 -46.9375 L 59.234375 0 L 46.46875 0 L 46.078125 -19.640625 L 36.03125 0 L 26.78125 0 L 16.796875 -19.296875 L 16.203125 0 Z M 4.09375 0 "/></g></g></g></g></g><g transform="matrix(1, 0, 0, 1, 311, 18)"><g clip-path="url(#8a49416250)"><g fill="#f9fafb" fill-opacity="1"><g transform="translate(1.227605, 66.685327)"><g><path d="M 3.96875 0 L 3.96875 -46.953125 L 20.5 -46.953125 C 29.894531 -46.953125 36.984375 -44.976562 41.765625 -41.03125 C 46.546875 -37.09375 48.9375 -31.265625 48.9375 -23.546875 C 48.9375 -20.148438 48.316406 -17.019531 47.078125 -14.15625 C 45.847656 -11.289062 44.109375 -8.796875 41.859375 -6.671875 C 39.617188 -4.554688 36.960938 -2.914062 33.890625 -1.75 C 30.828125 -0.582031 27.488281 0 23.875 0 Z M 17.203125 -11.640625 L 22.953125 -11.640625 C 27.140625 -11.640625 30.300781 -12.628906 32.4375 -14.609375 C 34.582031 -16.597656 35.65625 -19.46875 35.65625 -23.21875 C 35.65625 -27.40625 34.53125 -30.46875 32.28125 -32.40625 C 30.03125 -34.34375 26.523438 -35.3125 21.765625 -35.3125 L 17.203125 -35.3125 Z M 17.203125 -11.640625 "/></g></g></g><g fill="#f9fafb" fill-opacity="1"><g transform="translate(56.724916, 66.685327)"><g><path d="M 19.78125 0.65625 C 13.863281 0.65625 9.25 -0.597656 5.9375 -3.109375 C 2.632812 -5.617188 0.765625 -9.28125 0.328125 -14.09375 L 12.5625 -15.875 C 12.65625 -14.195312 13.394531 -12.835938 14.78125 -11.796875 C 16.164062 -10.765625 17.960938 -10.25 20.171875 -10.25 C 24.234375 -10.25 26.265625 -11.304688 26.265625 -13.421875 C 26.265625 -14.390625 25.703125 -15.171875 24.578125 -15.765625 C 23.453125 -16.367188 21.609375 -16.976562 19.046875 -17.59375 C 13.578125 -18.914062 9.5625 -20.675781 7 -22.875 C 4.445312 -25.082031 3.191406 -28.191406 3.234375 -32.203125 C 3.285156 -35.253906 4.09375 -37.9375 5.65625 -40.25 C 7.21875 -42.5625 9.421875 -44.367188 12.265625 -45.671875 C 15.109375 -46.972656 18.453125 -47.625 22.296875 -47.625 C 27.003906 -47.625 30.890625 -46.429688 33.953125 -44.046875 C 37.023438 -41.671875 38.78125 -38.429688 39.21875 -34.328125 L 27.640625 -32.34375 C 27.421875 -33.625 26.75 -34.671875 25.625 -35.484375 C 24.5 -36.296875 23.144531 -36.703125 21.5625 -36.703125 C 20.0625 -36.703125 18.859375 -36.40625 17.953125 -35.8125 C 17.046875 -35.21875 16.59375 -34.414062 16.59375 -33.40625 C 16.59375 -32.476562 17.046875 -31.671875 17.953125 -30.984375 C 18.859375 -30.304688 20.566406 -29.65625 23.078125 -29.03125 C 26.691406 -28.15625 29.722656 -27.15625 32.171875 -26.03125 C 34.617188 -24.90625 36.472656 -23.457031 37.734375 -21.6875 C 38.992188 -19.925781 39.625 -17.613281 39.625 -14.75 C 39.625 -11.707031 38.796875 -9.023438 37.140625 -6.703125 C 35.484375 -4.390625 33.164062 -2.582031 30.1875 -1.28125 C 27.21875 0.0078125 23.75 0.65625 19.78125 0.65625 Z M 19.78125 0.65625 "/></g></g></g></g></g><g clip-path="url(#df2577913b)"><path fill="#61c2a2" d="M 320.285156 21.675781 C 320.285156 22.339844 320.285156 23.003906 320.285156 23.667969 C 319.136719 25.4375 317.179688 26.242188 315.652344 27.554688 C 311.410156 29.875 306.976562 31.441406 302.035156 31 C 301.816406 30.984375 301.59375 30.96875 301.375 30.953125 C 299.992188 30.539062 298.605469 30.125 297.152344 29.6875 C 297.351562 31.140625 297.472656 32.496094 297.738281 33.824219 C 298.253906 36.402344 298.320312 39.050781 299.03125 41.59375 C 299.046875 41.8125 299.0625 42.035156 299.078125 42.253906 C 299.085938 42.824219 299 43.410156 299.363281 43.914062 C 299.402344 44.601562 299.230469 45.3125 299.582031 45.964844 C 299.621094 46.070312 299.664062 46.171875 299.707031 46.277344 L 299.675781 46.261719 C 299.738281 46.859375 299.734375 47.472656 299.878906 48.046875 C 300.800781 51.746094 301.707031 55.445312 302.71875 59.121094 C 303.460938 61.828125 303.808594 64.644531 304.980469 67.234375 C 304.792969 68.144531 305.460938 68.914062 305.40625 69.800781 C 305.34375 70.027344 305.453125 70.160156 305.648438 70.246094 C 305.671875 70.425781 305.703125 70.609375 305.730469 70.792969 C 306.820312 75.105469 307.917969 79.414062 309.007812 83.726562 C 309.007812 84.058594 309.007812 84.394531 309.007812 84.726562 C 308.664062 86.035156 308.0625 87.1875 307.03125 88.09375 C 306.6875 88.285156 306.347656 88.480469 306.003906 88.675781 C 302.304688 89.40625 300.195312 88.007812 299.355469 84.328125 C 299.105469 83.222656 298.730469 82.148438 298.414062 81.0625 C 298.261719 79.34375 297.660156 77.730469 297.210938 76.085938 C 296.792969 74.1875 296.40625 72.28125 295.730469 70.457031 C 295.1875 67.769531 294.585938 65.097656 293.707031 62.496094 C 293.21875 60.234375 292.960938 57.902344 291.78125 55.839844 C 291.753906 55.511719 291.730469 55.183594 291.703125 54.855469 C 291.777344 54.457031 291.765625 54.082031 291.445312 53.777344 C 291.402344 53.472656 291.359375 53.164062 291.316406 52.859375 C 291.289062 52.746094 291.261719 52.632812 291.234375 52.523438 C 291.320312 52.351562 291.234375 52.308594 291.082031 52.316406 C 288.914062 52.175781 288.914062 52.175781 288.914062 54.230469 C 288.914062 63.90625 288.902344 73.578125 288.921875 83.253906 C 288.925781 84.605469 288.761719 85.886719 288.039062 87.054688 C 287.371094 87.683594 286.691406 88.296875 285.828125 88.660156 L 285.886719 88.710938 L 285.859375 88.691406 L 285.777344 88.734375 C 285.667969 88.753906 285.554688 88.769531 285.445312 88.789062 C 285.339844 88.816406 285.230469 88.84375 285.125 88.867188 C 281.871094 89.308594 279.46875 87.214844 279.464844 83.882812 C 279.453125 73.292969 279.546875 62.703125 279.414062 52.113281 C 279.367188 48.347656 278.546875 44.625 277.824219 40.917969 C 277.804688 40.695312 277.785156 40.476562 277.765625 40.253906 C 277.648438 39.480469 277.535156 38.707031 277.421875 37.933594 C 277.492188 37.492188 277.515625 37.054688 277.28125 36.644531 C 276.925781 34.746094 277.078125 32.746094 276.1875 30.949219 C 276.171875 30.511719 276.160156 30.074219 276.144531 29.636719 C 276.117188 29.535156 276.085938 29.433594 276.058594 29.328125 C 275.707031 28.410156 274.519531 28.070312 274.433594 26.972656 C 275.441406 26.261719 276.453125 25.554688 277.808594 24.601562 C 276.128906 24.839844 275.273438 25.757812 274.246094 26.316406 C 272.910156 27.046875 272.464844 28.078125 272.46875 29.65625 C 272.542969 47.730469 272.523438 65.804688 272.527344 83.882812 C 272.527344 86.71875 270.914062 88.757812 268.464844 89.058594 C 265.789062 89.386719 263.898438 87.96875 263.125 85.054688 C 263.128906 75.132812 263.140625 65.210938 263.132812 55.289062 C 263.132812 54.953125 263.367188 54.507812 262.871094 54.277344 C 261.625 53.882812 261.160156 54.335938 261.289062 55.621094 C 261.375 56.441406 261.285156 57.273438 261.285156 58.101562 C 261.292969 66.648438 261.28125 75.195312 261.324219 83.742188 C 261.328125 85.484375 260.96875 86.992188 259.511719 88.089844 C 256.554688 90.3125 253.25 89.007812 251.871094 85.066406 C 251.867188 84.949219 251.859375 84.832031 251.855469 84.71875 C 251.871094 84.164062 251.898438 83.613281 251.898438 83.0625 C 251.910156 65.160156 251.914062 47.257812 251.921875 29.355469 C 251.921875 27.3125 249.535156 25.097656 247.417969 25.140625 C 248.179688 25.714844 249.238281 26.144531 249.679688 26.925781 C 250.355469 28.109375 248.679688 28.410156 248.34375 29.285156 C 248.269531 29.492188 248.175781 29.699219 248.148438 29.914062 C 247.855469 32.035156 247.308594 34.117188 247.304688 36.273438 C 247.28125 36.488281 247.253906 36.703125 247.226562 36.917969 C 246.992188 37.09375 246.96875 37.335938 247.023438 37.597656 C 246.988281 38.039062 246.949219 38.476562 246.914062 38.917969 C 246.644531 39.328125 246.613281 39.785156 246.664062 40.253906 C 246.644531 40.476562 246.625 40.695312 246.605469 40.917969 C 246.042969 42.984375 245.855469 45.105469 245.65625 47.222656 C 245.632812 47.441406 245.609375 47.660156 245.585938 47.875 C 245.34375 48.171875 245.292969 48.511719 245.363281 48.878906 C 245.328125 49.320312 245.289062 49.757812 245.253906 50.195312 C 244.964844 50.574219 244.960938 51.019531 244.964844 51.457031 C 244.976562 56.351562 244.992188 61.242188 245.007812 66.136719 C 245.007812 67.800781 245.007812 69.460938 245.007812 71.125 C 245.007812 72.78125 245.007812 74.4375 245.007812 76.09375 C 245.007812 77.753906 245.007812 79.417969 245.007812 81.078125 C 244.808594 82.730469 245.226562 84.421875 244.667969 86.046875 C 244.59375 86.121094 244.570312 86.210938 244.605469 86.3125 C 243.492188 87.964844 241.976562 88.925781 239.964844 89.042969 C 239.753906 88.980469 239.542969 88.917969 239.335938 88.855469 C 239.105469 88.816406 238.875 88.777344 238.644531 88.738281 C 236.347656 87.617188 235.539062 85.796875 235.589844 83.246094 C 235.714844 77.007812 235.628906 70.769531 235.628906 64.53125 C 235.628906 60.832031 235.605469 57.132812 235.648438 53.433594 C 235.65625 52.667969 235.417969 52.277344 234.664062 52.261719 C 234.101562 52.25 233.308594 51.847656 233.128906 52.710938 C 232.886719 53.871094 232.203125 54.9375 232.335938 56.179688 C 231.757812 57.804688 231.304688 59.457031 231.054688 61.160156 C 230.976562 61.253906 230.964844 61.359375 231.015625 61.46875 C 230.960938 61.574219 230.90625 61.675781 230.855469 61.78125 C 230.789062 62.125 230.722656 62.464844 230.65625 62.808594 C 229.394531 67.085938 228.269531 71.394531 227.371094 75.761719 C 226.695312 77.472656 226.304688 79.253906 226.015625 81.0625 C 225.460938 82.941406 224.902344 84.816406 224.347656 86.695312 L 224.363281 86.675781 C 222.808594 88.597656 220.878906 89.425781 218.421875 88.691406 L 218.433594 88.695312 C 218.324219 88.621094 218.210938 88.546875 218.105469 88.472656 C 217.613281 88.09375 217.121094 87.722656 216.632812 87.347656 C 216.558594 87.269531 216.484375 87.1875 216.410156 87.109375 L 216.371094 87.054688 C 216.277344 86.9375 216.1875 86.816406 216.09375 86.695312 C 216.046875 86.582031 216 86.464844 215.953125 86.351562 C 215.886719 86.25 215.824219 86.148438 215.761719 86.050781 C 215.160156 84.351562 215.800781 82.722656 216.054688 81.078125 C 216.132812 80.984375 216.148438 80.878906 216.097656 80.765625 C 216.152344 80.664062 216.207031 80.558594 216.257812 80.453125 C 216.296875 79.167969 217.171875 78.082031 217.121094 76.773438 C 217.875 74.839844 218.246094 72.804688 218.699219 70.789062 C 219.507812 67.589844 220.316406 64.386719 221.125 61.1875 C 221.742188 58.886719 222.386719 56.59375 222.976562 54.285156 C 224.03125 50.121094 225.203125 45.976562 225.410156 41.648438 C 225.875 40.90625 225.703125 40.078125 225.75 39.277344 C 226.054688 38.875 226.066406 38.414062 226 37.941406 C 226.027344 37.722656 226.054688 37.507812 226.082031 37.289062 C 226.363281 35.679688 226.617188 34.066406 226.925781 32.464844 C 227.429688 29.835938 227.34375 29.726562 224.761719 30.480469 C 224.195312 30.644531 223.523438 30.449219 223.054688 30.953125 C 222.832031 30.96875 222.613281 30.984375 222.394531 31 C 217.601562 31.382812 213.242188 30.035156 209.128906 27.703125 C 209.054688 27.617188 208.964844 27.59375 208.859375 27.625 C 208.597656 27.261719 208.226562 27.070312 207.8125 26.949219 L 207.832031 26.964844 C 207.601562 26.589844 207.226562 26.410156 206.835938 26.265625 L 206.859375 26.285156 C 205.898438 25.46875 204.847656 24.75 204.148438 23.667969 C 204.148438 23.003906 204.148438 22.339844 204.148438 21.675781 C 205.238281 19.957031 206.703125 19.289062 208.679688 20.058594 C 209.238281 20.792969 210.003906 21.257812 210.808594 21.664062 C 213.378906 23.527344 216.140625 24.9375 219.390625 25.042969 C 220.421875 25.078125 221.105469 25.347656 221.484375 26.398438 C 221.730469 27.074219 222.390625 27.453125 223.097656 27.726562 C 225.039062 28.484375 227.988281 27.210938 229.433594 24.679688 C 228.132812 25.5 227.128906 26.121094 226.136719 26.761719 C 225.300781 27.300781 224.464844 27.492188 223.492188 27.101562 C 221.167969 26.164062 220.957031 23.746094 223.054688 21.671875 C 223.511719 21.371094 223.972656 21.074219 224.433594 20.773438 C 226.445312 19.769531 228.394531 18.660156 230.542969 17.929688 C 231.574219 17.578125 232.027344 17.683594 232.585938 18.699219 C 235.691406 24.328125 242.949219 25.277344 247.4375 20.71875 C 248.242188 19.902344 248.734375 18.167969 250.433594 19.597656 C 250.523438 19.671875 250.972656 19.308594 251.265625 19.167969 C 252.25 18.6875 253.25 18.234375 254.230469 17.746094 C 255 17.363281 255.546875 17.476562 256.253906 18.082031 C 259.546875 20.898438 264.296875 21.128906 267.683594 18.457031 C 268.902344 17.496094 269.789062 17.570312 271.015625 18.082031 C 272.347656 18.640625 273.496094 20.027344 275.234375 19.070312 C 275.730469 18.796875 275.914062 19.4375 276.175781 19.773438 C 280.605469 25.394531 288.527344 24.78125 291.972656 18.492188 C 292.453125 17.621094 292.859375 17.554688 293.640625 17.867188 C 294.953125 18.394531 296.285156 18.882812 297.609375 19.390625 C 298.863281 20.152344 300.117188 20.914062 301.371094 21.675781 C 301.5625 21.871094 301.75 22.066406 301.941406 22.261719 C 303.074219 23.421875 303.21875 24.882812 302.316406 26.105469 C 301.382812 27.375 299.792969 27.671875 298.367188 26.8125 C 297.472656 26.277344 296.636719 25.640625 295.71875 25.148438 C 295.269531 24.90625 294.8125 24.324219 294.113281 24.785156 C 295.410156 25.671875 296.628906 26.566406 297.90625 27.367188 C 299.730469 28.511719 302.085938 28.167969 302.921875 26.398438 C 303.472656 25.226562 304.265625 25.117188 305.226562 25.050781 C 308.402344 24.839844 311.105469 23.480469 313.632812 21.667969 C 313.757812 21.582031 313.882812 21.492188 314.011719 21.40625 C 314.785156 20.902344 315.558594 20.398438 316.332031 19.894531 C 316.464844 19.835938 316.601562 19.773438 316.738281 19.710938 C 317.144531 19.707031 317.554688 19.703125 317.960938 19.699219 C 319.011719 20.023438 319.652344 20.84375 320.285156 21.675781 Z M 320.285156 21.675781 " fill-opacity="1" fill-rule="evenodd"/></g><path fill="#61c2a2" d="M 275.78125 10.730469 C 277.257812 7.898438 279.574219 6.21875 282.714844 5.660156 C 282.882812 5.648438 283.050781 5.636719 283.21875 5.628906 C 283.40625 5.636719 283.59375 5.644531 283.78125 5.652344 C 287.882812 5.847656 290.480469 8.070312 292.003906 11.75 C 292.75 15.511719 291.929688 18.78125 288.765625 21.148438 C 284.519531 24.328125 278.023438 23.132812 275.460938 17.039062 C 275.492188 16.808594 275.351562 16.714844 275.167969 16.65625 C 275.175781 16.554688 275.164062 16.457031 275.128906 16.363281 C 275.179688 14.464844 274.976562 12.539062 275.78125 10.730469 Z M 275.78125 10.730469 " fill-opacity="1" fill-rule="evenodd"/><g clip-path="url(#c875a82045)"><path fill="#61c2a2" d="M 260.574219 2.4375 C 260.679688 2.421875 260.78125 2.40625 260.886719 2.390625 C 264.222656 2.113281 266.976562 3.265625 269.171875 5.777344 C 269.246094 5.890625 269.324219 6.003906 269.402344 6.113281 C 270.296875 7.757812 270.851562 9.496094 270.871094 11.386719 C 270.847656 11.710938 270.824219 12.039062 270.804688 12.371094 C 270.546875 12.660156 270.480469 13 270.546875 13.375 C 269.339844 16.476562 267.320312 18.691406 263.925781 19.347656 C 259.761719 20.152344 255.976562 18.136719 254.289062 14.273438 C 254.160156 13.976562 254.023438 13.679688 253.886719 13.382812 C 253.933594 13.011719 253.878906 12.660156 253.617188 12.367188 C 253.59375 12.039062 253.574219 11.710938 253.550781 11.386719 C 253.832031 6.628906 255.851562 4.054688 260.574219 2.4375 Z M 260.574219 2.4375 " fill-opacity="1" fill-rule="evenodd"/></g><path fill="#61c2a2" d="M 238.980469 5.730469 C 240.199219 5.738281 241.414062 5.75 242.628906 5.761719 C 243.484375 6.105469 244.335938 6.445312 245.191406 6.792969 C 246.535156 7.824219 247.671875 9.042969 248.558594 10.488281 C 248.816406 11.449219 249.074219 12.414062 249.332031 13.375 C 249.117188 18.113281 247.265625 21.054688 243.699219 22.328125 C 239.839844 23.703125 235.347656 22.121094 233.390625 18.695312 C 231.214844 14.886719 232.023438 10.300781 235.351562 7.566406 C 235.683594 7.292969 236.023438 7.027344 236.363281 6.757812 C 237.234375 6.414062 238.105469 6.070312 238.980469 5.730469 Z M 238.980469 5.730469 " fill-opacity="1" fill-rule="evenodd"/></svg>